<svg width="100%" height="100%" viewBox="0 0 1440 900" version="1.1" xmlns="http://www.w3.org/2000/svg" xmlns:xlink="http://www.w3.org/1999/xlink" xml:space="preserve" xmlns:serif="http://www.serif.com/" style="fill-rule:evenodd;clip-rule:evenodd;stroke-linecap:round;stroke-linejoin:round;stroke-miterlimit:1.5;">
    <rect x="0" y="0" width="1440" height="900" style="fill:rgb(2,0,52);stroke:white;stroke-width:1px;"/>
    <g transform="matrix(1,0,0,0.620606,-40.2609,-35.3331)">
        <path d="M40.261,781.54C40.261,781.54 150.556,570.332 400.261,570.332C664.184,570.332 895.201,806.692 1120.26,806.692C1345.32,806.692 1466.54,600.058 1480.26,540.332" style="fill:none;stroke:url(#_Linear1);stroke-width:7.21px;"/>
    </g>
    <g transform="matrix(1,0,0,0.620606,-40.2609,-4.30281)">
        <path d="M40.261,781.54C40.261,781.54 150.556,570.332 400.261,570.332C664.184,570.332 895.201,806.692 1120.26,806.692C1345.32,806.692 1466.54,600.058 1480.26,540.332" style="fill:none;stroke:url(#_Linear2);stroke-width:7.21px;"/>
    </g>
    <g transform="matrix(1,0,0,0.620606,-40.2609,26.7275)">
        <path d="M40.261,781.54C40.261,781.54 150.556,570.332 400.261,570.332C664.184,570.332 895.201,806.692 1120.26,806.692C1345.32,806.692 1466.54,600.058 1480.26,540.332" style="fill:none;stroke:url(#_Linear3);stroke-width:7.21px;"/>
    </g>
    <g transform="matrix(1,0,0,0.620606,-40.2609,57.7577)">
        <path d="M40.261,781.54C40.261,781.54 150.556,570.332 400.261,570.332C664.184,570.332 895.201,806.692 1120.26,806.692C1345.32,806.692 1466.54,600.058 1480.26,540.332" style="fill:none;stroke:url(#_Linear4);stroke-width:7.21px;"/>
    </g>
    <g transform="matrix(1,0,0,0.620606,-40.2609,88.788)">
        <path d="M40.261,781.54C40.261,781.54 150.556,570.332 400.261,570.332C664.184,570.332 895.201,806.692 1120.26,806.692C1345.32,806.692 1466.54,600.058 1480.26,540.332" style="fill:none;stroke:url(#_Linear5);stroke-width:7.21px;"/>
    </g>
    <g transform="matrix(1,0,0,0.620606,-40.2609,119.818)">
        <path d="M40.261,781.54C40.261,781.54 150.556,570.332 400.261,570.332C664.184,570.332 895.201,806.692 1120.26,806.692C1345.32,806.692 1466.54,600.058 1480.26,540.332" style="fill:none;stroke:url(#_Linear6);stroke-width:7.21px;"/>
    </g>
    <g transform="matrix(1,0,0,0.620606,-40.2609,150.849)">
        <path d="M40.261,781.54C40.261,781.54 150.556,570.332 400.261,570.332C664.184,570.332 895.201,806.692 1120.26,806.692C1345.32,806.692 1466.54,600.058 1480.26,540.332" style="fill:none;stroke:url(#_Linear7);stroke-width:7.21px;"/>
    </g>
    <g transform="matrix(1,0,0,0.620606,-40.2609,181.879)">
        <path d="M40.261,781.54C40.261,781.54 150.556,570.332 400.261,570.332C664.184,570.332 895.201,806.692 1120.26,806.692C1345.32,806.692 1466.54,600.058 1480.26,540.332" style="fill:none;stroke:url(#_Linear8);stroke-width:7.21px;"/>
    </g>
    <defs>
        <linearGradient id="_Linear1" x1="0" y1="0" x2="1" y2="0" gradientUnits="userSpaceOnUse" gradientTransform="matrix(1440,0,0,266.359,40.2609,673.512)"><stop offset="0" style="stop-color:rgb(255,208,149);stop-opacity:1"/><stop offset="1" style="stop-color:rgb(255,205,0);stop-opacity:1"/></linearGradient>
        <linearGradient id="_Linear2" x1="0" y1="0" x2="1" y2="0" gradientUnits="userSpaceOnUse" gradientTransform="matrix(1440,0,0,266.359,40.2609,673.512)"><stop offset="0" style="stop-color:rgb(255,208,149);stop-opacity:1"/><stop offset="1" style="stop-color:rgb(255,205,0);stop-opacity:1"/></linearGradient>
        <linearGradient id="_Linear3" x1="0" y1="0" x2="1" y2="0" gradientUnits="userSpaceOnUse" gradientTransform="matrix(1440,0,0,266.359,40.2609,673.512)"><stop offset="0" style="stop-color:rgb(255,208,149);stop-opacity:1"/><stop offset="1" style="stop-color:rgb(255,205,0);stop-opacity:1"/></linearGradient>
        <linearGradient id="_Linear4" x1="0" y1="0" x2="1" y2="0" gradientUnits="userSpaceOnUse" gradientTransform="matrix(1440,0,0,266.359,40.2609,673.512)"><stop offset="0" style="stop-color:rgb(255,208,149);stop-opacity:1"/><stop offset="1" style="stop-color:rgb(255,205,0);stop-opacity:1"/></linearGradient>
        <linearGradient id="_Linear5" x1="0" y1="0" x2="1" y2="0" gradientUnits="userSpaceOnUse" gradientTransform="matrix(1440,0,0,266.359,40.2609,673.512)"><stop offset="0" style="stop-color:rgb(255,208,149);stop-opacity:1"/><stop offset="1" style="stop-color:rgb(255,205,0);stop-opacity:1"/></linearGradient>
        <linearGradient id="_Linear6" x1="0" y1="0" x2="1" y2="0" gradientUnits="userSpaceOnUse" gradientTransform="matrix(1440,0,0,266.359,40.2609,673.512)"><stop offset="0" style="stop-color:rgb(255,208,149);stop-opacity:1"/><stop offset="1" style="stop-color:rgb(255,205,0);stop-opacity:1"/></linearGradient>
        <linearGradient id="_Linear7" x1="0" y1="0" x2="1" y2="0" gradientUnits="userSpaceOnUse" gradientTransform="matrix(1440,0,0,266.359,40.2609,673.512)"><stop offset="0" style="stop-color:rgb(255,208,149);stop-opacity:1"/><stop offset="1" style="stop-color:rgb(255,205,0);stop-opacity:1"/></linearGradient>
        <linearGradient id="_Linear8" x1="0" y1="0" x2="1" y2="0" gradientUnits="userSpaceOnUse" gradientTransform="matrix(1440,0,0,266.359,40.2609,673.512)"><stop offset="0" style="stop-color:rgb(255,208,149);stop-opacity:1"/><stop offset="1" style="stop-color:rgb(255,205,0);stop-opacity:1"/></linearGradient>
    </defs>
</svg>
