<svg width="120" height="100" viewBox="0 0 120 100" fill="none" xmlns="http://www.w3.org/2000/svg">
<g id="triangles">
<rect width="120" height="100" fill="white"/>
<g id="lightgroup">
<path id="light" opacity="0.7" d="M49.5 47.634C50.1667 48.0189 50.1667 48.9811 49.5 49.366L18.75 67.1195C18.0833 67.5044 17.25 67.0233 17.25 66.2535L17.25 30.7465C17.25 29.9767 18.0833 29.4956 18.75 29.8805L49.5 47.634Z" fill="#FEDCBA"/>
</g>
<g id="darkgroup">
<path id="dark2" opacity="0.7" d="M67.5 47.634C68.1667 48.0189 68.1667 48.9811 67.5 49.366L36.75 67.1195C36.0833 67.5044 35.25 67.0233 35.25 66.2535L35.25 30.7465C35.25 29.9767 36.0833 29.4956 36.75 29.8805L67.5 47.634Z" fill="#123456"/>
<path id="dark1" opacity="0.7" d="M49.5 47.634C50.1667 48.0189 50.1667 48.9811 49.5 49.366L18.75 67.1195C18.0833 67.5044 17.25 67.0233 17.25 66.2535L17.25 30.7465C17.25 29.9767 18.0833 29.4956 18.75 29.8805L49.5 47.634Z" fill="#123456"/>
</g>
</g>
</svg>
