<?xml version="1.0" encoding="UTF-8" standalone="no"?>
<!DOCTYPE svg PUBLIC "-//W3C//DTD SVG 1.1//EN" "http://www.w3.org/Graphics/SVG/1.1/DTD/svg11.dtd">
<svg width="100%" height="100%" viewBox="0 0 60 51" version="1.1" xmlns="http://www.w3.org/2000/svg" xmlns:xlink="http://www.w3.org/1999/xlink" xml:space="preserve" xmlns:serif="http://www.serif.com/" style="fill-rule:evenodd;clip-rule:evenodd;stroke-linejoin:round;stroke-miterlimit:2;">
    <g transform="matrix(1,0,0,1,-606.981,-50.4558)">
        <g transform="matrix(2.28805,0,0,2,559.955,0)">
            <g transform="matrix(0.382792,0,0,0.500484,-46.0742,11.2321)">
                <g id="_110-bubbles2" serif:id="110-bubbles2" transform="matrix(1.9997,0,0,1.44059,189.617,27.9659)">
                    <path d="M7.5,0C11.642,0 15,2.717 15,6.069C15,9.421 11.642,12.138 7.5,12.138C7.102,12.138 6.712,12.113 6.331,12.064C4.72,13.669 2.86,13.956 1,13.999L1,13.606C2.004,13.116 2.813,12.224 2.813,11.204C2.813,11.062 2.802,10.922 2.781,10.785C1.085,9.672 -0,7.973 -0,6.068C-0,2.716 3.358,-0.001 7.5,-0.001L7.5,0ZM15.563,13.604C15.563,14.478 16.13,15.243 17.001,15.663L17.001,16C15.39,15.964 13.911,15.717 12.514,14.342C12.184,14.383 11.845,14.405 11.501,14.405C10.009,14.405 8.635,14.003 7.538,13.326C9.799,13.318 11.933,12.594 13.551,11.284C14.367,10.624 15.01,9.849 15.464,8.982C15.945,8.062 16.188,7.082 16.188,6.069C16.188,5.906 16.181,5.743 16.168,5.582C17.302,6.518 18,7.795 18,9.202C18,10.835 17.06,12.291 15.59,13.245C15.572,13.362 15.563,13.482 15.563,13.604Z" style="fill-rule:nonzero;"/>
                </g>
                <g id="_119-user-tie" serif:id="119-user-tie" transform="matrix(1.78262,0,0,1.55979,217.135,50.9794)">
                    <path d="M5,3C5,1.343 6.343,0 8,0C9.657,0 11,1.343 11,3C11,4.657 9.657,6 8,6C6.343,6 5,4.657 5,3ZM12.001,7L11.448,7L8.337,13.316L9.5,7.5L8,6L6.5,7.5L7.663,13.316L4.552,7L3.998,7C1.999,7 1.999,8.344 1.999,10L1.999,15L13.999,15L13.999,10C13.999,8.344 13.999,7 12,7L12.001,7Z" style="fill:rgb(19,174,46);fill-rule:nonzero;"/>
                </g>
                <g id="_114-user" serif:id="114-user" transform="matrix(2.39696,0,0,2.09734,171.66,46.7847)">
                    <path d="M9,11.041L9,10.216C10.102,9.595 11,8.048 11,6.5C11,4.015 11,2 8,2C5,2 5,4.015 5,6.5C5,8.048 5.898,9.595 7,10.216L7,11.041C3.608,11.318 1,12.985 1,15L15,15C15,12.985 12.392,11.318 9,11.041Z" style="fill-rule:nonzero;"/>
                </g>
            </g>
        </g>
    </g>
</svg>
